{"title":"Nyamanton AKA Lessons from the Garbage (1987)","uid":13829730,"size":1359104511,"categoryP":"video","categoryS":"movies","magnet":"?xt=urn:btih:e3bcaee93bccb53df71b57358bb021b00ec5d4f6&amp;dn=Nyamanton+AKA+Lessons+from+the+Garbage+%281987%29&amp;tr=udp%3A%2F%2Ftracker.leechers-paradise.org%3A6969&amp;tr=udp%3A%2F%2Fzer0day.ch%3A1337&amp;tr=udp%3A%2F%2Fopen.demonii.com%3A1337&amp;tr=udp%3A%2F%2Ftracker.coppersurfer.tk%3A6969&amp;tr=udp%3A%2F%2Fexodus.desync.com%3A6969","seeders":0,"leechers":1,"uploader":"Aaaameida","files":3,"time":1457733805,"description":"Khalifa and Fanta, two children from a deprived suburb of Bamako, are expelled from school because they do not have the means to buy the necessary supplies. Here they are forced to collect garbage to try to finance their education. Exhausted by their work, children wear a look of mischievous replicas and humorous on the Malian changing society. \r\n\r\nLanguage: Bambara\r\n\r\nSubtitle: French (hardcoded), English and Portuguese\r\n\r\nIMDB: http://www.imdb.com/title/tt0091660\r\n\r\nFormat : AVI\r\nFormat/Info : Audio Video Interleave\r\nFile size : 1.27 GiB\r\nDuration : 1h 30mn\r\nOverall bit rate : 2 000 Kbps\r\nWriting application : VirtualDubMod 1.5.10.2 (build 2540/release)\r\nWriting library : VirtualDubMod build 2540/release\r\n\r\nVideo\r\nID : 0\r\nFormat : MPEG-4 Visual\r\nFormat profile : Advanced   \r\nFormat settings, BVOP : 2\r\nFormat settings, QPel : No\r\nFormat settings, GMC : No warppoints\r\nFormat settings, Matrix : Default (H.263)\r\nMuxing mode : Packed bitstream\r\nCodec ID : XVID\r\nCodec ID/Hint : XviD\r\nDuration : 1h 30mn\r\nBit rate : 1 734 Kbps\r\nWidth : 672 pixels\r\nHeight : 496 pixels\r\nDisplay aspect ratio : 4:3\r\nFrame rate : 25.000 fps\r\nColor space : YUV\r\nChroma subsampling : 4:2:0\r\nBit depth : 8 bits\r\nScan type : Progressive\r\nCompression mode : Lossy\r\nBits/(Pixel*Frame) : 0.208\r\nStream size : 1.10 GiB (87%)\r\nWriting library : XviD 64\r\n\r\nAudio\r\nID : 1\r\nFormat : MPEG Audio\r\nFormat version : Version 1\r\nFormat profile : Layer 3\r\nMode : Joint stereo\r\nMode extension : MS Stereo\r\nCodec ID : 55\r\nCodec ID/Hint : MP3\r\nDuration : 1h 30mn\r\nBit rate mode : Constant\r\nBit rate : 256 Kbps\r\nChannel(s) : 2 channels\r\nSampling rate : 48.0 KHz\r\nCompression mode : Lossy\r\nStream size : 166 MiB (13%)\r\nAlignment : Aligned on interleaves\r\nInterleave, duration : 40 ms (1.00 video frame)\r\nInterleave, preload duration : 504 ms\r\n\r\n\r\nUpload KG: Tadanobu","torrent":{"xt":"urn:btih:e3bcaee93bccb53df71b57358bb021b00ec5d4f6","amp;dn":"Nyamanton+AKA+Lessons+from+the+Garbage+%281987%29","amp;tr":["udp%3A%2F%2Ftracker.leechers-paradise.org%3A6969","udp%3A%2F%2Fzer0day.ch%3A1337","udp%3A%2F%2Fopen.demonii.com%3A1337","udp%3A%2F%2Ftracker.coppersurfer.tk%3A6969","udp%3A%2F%2Fexodus.desync.com%3A6969"],"infoHash":"e3bcaee93bccb53df71b57358bb021b00ec5d4f6","infoHashBuffer":{"type":"Buffer","data":[227,188,174,233,59,204,181,61,247,27,87,53,139,176,33,176,14,197,212,246]},"announce":[],"urlList":[]}}